<?xml version="1.0" encoding="UTF-8"?>
<svg width="168px" height="100px" viewBox="0 0 168 100" version="1.1" xmlns="http://www.w3.org/2000/svg" xmlns:xlink="http://www.w3.org/1999/xlink">
    <title>forever-always-footer</title>
    <defs>
        <polygon id="path-1" points="0 0 68.5543026 0 68.5543026 83.5784228 0 83.5784228"></polygon>
    </defs>
    <g id="forever-always-footer" stroke="none" stroke-width="1" fill="none" fill-rule="evenodd">
        <g id="Group-64" transform="translate(0.000000, 0.000000)">
            <path d="M51.825416,31.1107843 C51.825416,31.1107843 48.4509326,29.155815 47.490181,29.270157 C46.7985513,29.3580051 42.0017651,30.4219435 41.8734789,37.6171229 L50.3849857,40.2442 C50.3849857,40.2442 50.1967397,35.3665377 53.8891496,34.1143534 L51.825416,31.1107843 Z" id="Fill-1" fill="#002C60"></path>
            <path d="M52.005156,35.3403227 C51.0109384,35.0098464 50.013932,34.698892 49.0615468,34.3321609 C47.1930312,33.6154318 45.3900531,32.7676277 43.6135689,31.8556806 C42.6695502,33.0771878 41.9235384,34.8927156 41.8733395,37.6160073 L50.3848463,40.2444789 C50.3848463,40.2444789 50.2732931,37.2423042 52.005156,35.3403227" id="Fill-3" fill="#005AAA"></path>
            <g id="Group-7" transform="translate(99.295472, 7.201733)">
                <mask id="mask-2" fill="white">
                    <use xlink:href="#path-1"></use>
                </mask>
                <g id="Clip-6"></g>
                <path d="M0,25.146873 L4.96272159,82.422453 L6.33482556,83.5784228 L66.5554092,49.0373785 C66.5554092,49.0373785 69.514357,47.5244387 68.2342844,44.5013478 L19.4367452,0 L0,25.146873 Z" id="Fill-5" fill="#4A0004" mask="url(#mask-2)"></path>
            </g>
            <path d="M99.6903707,31.3920377 L104.013056,88.6787731 L104.897115,89.6423136 L165.821878,55.0413095 C165.821878,55.0413095 168.607918,53.4976925 167.351551,51.3349555 L119.127116,6.2451647 L99.6903707,31.3920377 Z" id="Fill-8" fill="#7C0E1D"></path>
            <path d="M167.352108,51.3353738 L166.254704,50.3049014 C166.494543,51.1499166 166.62283,52.025609 166.374624,52.8511025 C165.989765,54.1200198 164.909094,54.7586616 163.757308,55.2690174 C162.351738,55.896504 104.897673,89.6427319 104.897673,89.6427319 L165.821041,55.0417278 C165.821041,55.0417278 168.607082,53.4981108 167.352108,51.3353738" id="Fill-10" fill="#7C0E1D"></path>
            <path d="M68.6509804,44.829593 L105.630856,90.781132 L41.7429617,99.9968181 C41.7429617,99.9968181 39.7517377,100.147415 38.7798307,98.3765083 L0.39577978,42.159289 C0.39577978,42.159289 -1.13807629,40.5208518 1.83342124,39.9644804 L68.6509804,44.829593 Z" id="Fill-12" fill="#912131"></path>
            <path d="M43.8401613,97.6111142 C43.4622749,97.8202763 41.6453527,97.6975679 41.2312116,97.3643028 C40.1338073,96.4788495 39.5286313,95.205749 38.6083177,94.1710933 C34.5798539,89.6462179 30.8414283,84.8494317 27.0444373,80.1265494 L39.0517415,97.7170897 C40.506116,99.2035356 41.8308098,98.8619041 41.8308098,98.8619041 L104.897394,89.6420347 L43.8401613,97.6111142 Z" id="Fill-14" fill="#7C0E1D"></path>
            <path d="M41.8982995,96.8811381 C44.2701988,96.3177946 58.1083693,93.3951016 104.546559,89.1979136 L68.923449,44.1680827 L2.10867868,39.3029701 C1.34314506,39.4452004 0.874621757,39.6613347 0.605499737,39.901174 C1.52581338,41.3653093 20.6362656,69.4669469 24.1906284,74.4003858 C27.5776615,79.1093239 31.0427818,83.754119 34.4716473,88.4281968 C36.5869743,91.3132406 38.6632576,94.2345392 40.5861554,97.2534468 C41.0156351,97.1112165 41.4548757,96.9871136 41.8982995,96.8811381" id="Fill-16" fill="#B62436"></path>
            <path d="M104.154031,88.8306248 C104.154031,88.8306248 64.5442899,91.5706495 40.0681303,96.7578719 L1.37870264,39.6524104 L9.09120983,39.3567945 L104.154031,88.8306248 Z" id="Fill-18" fill="#F6EEE7"></path>
            <path d="M104.154031,88.8306248 C104.154031,88.8306248 64.5442899,91.5706495 40.0681303,96.7578719 L1.37870264,39.6524104 L9.09120983,39.3567945 L104.154031,88.8306248 Z" id="Fill-20" fill="#E1DAD3"></path>
            <path d="M104.154031,88.8306248 C104.154031,88.8306248 56.4064863,88.3216635 40.5199207,96.1471183 L1.81654882,39.3804996 L9.09120983,39.3567945 L104.154031,88.8306248 Z" id="Fill-22" fill="#F6EEE7"></path>
            <path d="M104.154031,88.8306248 C104.154031,88.8306248 60.7807649,84.4284579 41.2589604,94.9367664 L3.25000704,39.3763163 L9.09120983,39.3567945 L104.154031,88.8306248 Z" id="Fill-24" fill="#E1DAD3"></path>
            <path d="M161.05549,48.0957303 L165.500884,52.453276 C165.500884,52.453276 135.223959,67.6984109 104.153613,88.8307643 C86.8308003,87.7877421 67.8179571,84.4857683 41.3017689,93.2050429 C16.471428,59.7376979 3.17010708,37.7659069 3.17010708,37.7659069 L10.3192708,34.0205093 L46.5043298,80.6622835 C46.5043298,80.6622835 65.8894817,65.7810908 98.4155969,77.8399883 C108.571118,50.5945213 133.984325,40.00952 161.05549,48.0957303" id="Fill-26" fill="#F6EEE7"></path>
            <path d="M113.740632,81.7808829 C116.140419,80.0378646 118.56949,78.340862 121.029237,76.6856919 C125.944548,73.369774 130.964441,70.2142137 136.04011,67.1604457 C138.580734,65.6349561 141.133907,64.1303828 143.698235,62.6425424 C146.220731,61.1798015 148.729283,59.6501286 151.318711,58.3087018 C155.807332,55.9828182 160.636189,54.3806358 165.151304,52.1147121 L161.055908,48.0960092 C133.984743,40.0097989 108.571537,50.5948002 98.4160152,77.8402672 C65.8899,65.7799753 46.5033538,80.6625624 46.5033538,80.6625624 L10.3196891,34.0207882 L3.17052541,37.7661858 C3.17052541,37.7661858 16.4718463,59.7365823 41.3021873,93.2039273 C67.816981,84.4846528 86.8298242,87.788021 104.154031,88.8310431 C105.284902,88.0585374 106.414377,87.2971871 107.542459,86.5428088 C109.494639,84.8234956 111.640643,83.3063725 113.740632,81.7808829" id="Fill-28" fill="#E1DAD3"></path>
            <path d="M161.341484,46.5133486 L165.595843,51.0200966 C165.595843,51.0200966 133.501997,64.0481123 104.153752,88.8310431 C86.8295453,87.788021 67.8180966,84.4846528 41.3019084,93.2039273 C16.4715675,59.7365823 3.17024653,37.7661858 3.17024653,37.7661858 L10.3194102,34.0207882 L46.5044693,80.6625624 C46.5044693,80.6625624 65.8896212,65.7799753 98.4157363,77.8402672 C108.571258,50.5948002 134.273108,38.4299271 161.341484,46.5133486" id="Fill-30" fill="#F6EEE7"></path>
            <path d="M161.341484,46.5133486 L165.595843,51.0200966 C165.595843,51.0200966 137.176279,59.4618827 104.153752,88.8310431 C86.8295453,87.788021 67.8180966,84.4846528 41.3019084,93.2039273 C16.4715675,59.7365823 3.17024653,37.7661858 3.17024653,37.7661858 L10.3194102,34.0207882 L46.5044693,80.6625624 C46.5044693,80.6625624 65.8896212,65.7799753 98.4157363,77.8402672 C108.571258,50.5948002 134.273108,38.4299271 161.341484,46.5133486" id="Fill-32" fill="#E1DAD3"></path>
            <path d="M161.341484,46.5133486 L164.612781,50.6171108 C164.612781,50.6171108 134.316335,60.1242296 104.153752,88.8310431 C86.8295453,87.788021 67.8180966,84.4846528 41.3019084,93.2039273 C16.4715675,59.7365823 3.17024653,37.7661858 3.17024653,37.7661858 L10.3194102,34.0207882 L46.5044693,80.6625624 C46.5044693,80.6625624 65.8896212,65.7799753 98.4157363,77.8402672 C108.571258,50.5948002 134.273108,38.4299271 161.341484,46.5133486" id="Fill-34" fill="#F6EEE7"></path>
            <path d="M161.069016,47.171094 L164.26362,49.6113196 C164.26362,49.6113196 135.065972,56.1316023 104.154589,88.8306248 C90.0905233,85.986019 60.4884956,84.6961855 42.9955644,91.2332012 C18.6644239,59.5270018 4.54039832,36.5623877 4.54039832,36.5623877 L10.3202469,34.0203698 L46.5039115,80.6635385 C46.5039115,80.6635385 65.8890634,65.7809513 98.4151785,77.8398489 C108.572095,50.5943819 134.000639,39.0890669 161.069016,47.171094" id="Fill-36" fill="#E1DAD3"></path>
            <path d="M161.069016,47.171094 C134.000639,39.0890669 108.572095,50.5943819 98.4151785,77.8398489 C65.8890634,65.7809513 46.5039115,80.6635385 46.5039115,80.6635385 L10.3202469,34.0203698 L6.21509026,35.8275312 C7.66388704,37.9832961 9.03180777,40.1948377 10.374629,42.4161402 C11.8959354,44.9456083 42.846362,88.1445728 44.0748413,89.6812177 C66.6922462,82.7356386 90.6315562,86.0906001 104.154589,88.8306248 C104.22431,88.7497488 104.298214,88.6758448 104.372118,88.5963632 C105.377491,87.1782435 106.541827,85.871677 107.764728,84.6390145 C109.560734,82.8248811 111.496182,81.1571612 113.29916,79.3555776 C115.401937,77.2569836 117.542364,75.2044053 119.745539,73.2076035 C123.962249,69.3896964 128.446686,65.9385202 133.268572,62.904274 C138.066752,59.8825776 143.090828,57.2276121 148.271078,54.919856 C150.931621,53.7304203 153.625631,52.6706652 156.394938,51.7587181 C158.857474,50.9527464 161.226585,49.7186895 163.78673,49.2487718 L161.069016,47.171094 Z" id="Fill-38" fill="#E1DAD3"></path>
            <path d="M162.13393,46.3343058 L164.659215,48.6560061 C164.659215,48.6560061 132.570946,53.7707189 104.154171,88.8304854 C82.7499065,82.052236 61.1281136,83.774338 43.9684474,88.8765011 C23.0605948,61.6840218 5.85909621,34.3521011 5.85909621,34.3521011 C5.85909621,34.3521011 9.36326012,31.8742263 13.7054672,31.3875756 L45.8997117,78.6177928 C45.8997117,78.6177928 74.8407869,68.6505172 102.045816,83.4090014 C112.340779,58.4977844 136.334471,44.3444761 162.13393,46.3343058" id="Fill-40" fill="#F6EEE7"></path>
            <path d="M162.13393,46.3343058 C136.334471,44.3444761 112.340779,58.4977844 102.045816,83.4090014 C74.8407869,68.6505172 45.8997117,78.6177928 45.8997117,78.6177928 L13.7054672,31.3875756 C11.1801824,31.6706418 8.94214691,32.6272102 7.50589986,33.3787997 C9.0369671,35.7367548 43.7230305,86.3275112 44.0116743,86.7221305 C46.54672,85.9426527 49.9658247,84.5105889 52.5845353,84.0504321 C55.5211725,83.5331043 69.9798575,79.2940839 96.6075989,85.9328918 C99.1231228,86.558984 101.645619,87.2157533 104.088633,88.1081786 C104.25178,88.1681384 104.420504,88.2308871 104.589228,88.2936357 C105.011736,87.7777023 105.437032,87.2617689 105.863723,86.7597797 C107.200967,84.5761264 108.783627,82.5347034 110.337005,80.5197743 C112.006119,78.3458819 113.6836,76.1803561 115.538172,74.155666 C117.455492,72.0556776 119.49552,70.0672424 121.638735,68.1973324 C125.696482,64.6708579 130.207413,61.7146989 134.926112,59.1643146 C139.643417,56.6125359 144.551756,54.3382456 149.510295,52.3177389 C154.132779,50.4366736 158.925382,48.7285157 163.868582,47.9309105 L162.13393,46.3343058 Z" id="Fill-42" fill="#C9C4BE"></path>
            <path d="M7.57450506,31.3695877 C22.7415528,54.6326066 44.6185235,85.1772585 44.6185235,85.1772585 C44.6185235,85.1772585 76.4376705,73.7932577 104.15445,88.8306248 L68.4142088,43.6543804 C53.3991523,31.93572 27.2566672,23.779789 7.57450506,31.3695877" id="Fill-44" fill="#F6EEE7"></path>
            <path d="M57.1497093,36.9812698 C58.3726109,37.5655295 59.587146,38.202777 60.6761838,39.0212984 C61.7387278,39.8175091 62.7496783,40.6973847 63.727163,41.599571 C67.8448693,45.3979564 71.2486354,49.8447446 74.7165445,54.2273897 C78.4968025,59.0088374 82.3607254,63.7275364 86.1214616,68.5285059 C87.992766,70.9129549 89.8013217,73.3489972 91.675415,75.7264741 C93.4839707,78.0216805 95.2590605,80.3545362 97.1624364,82.5674722 C98.5652175,84.2059093 100.022381,85.8066973 101.441895,87.4465289 C102.348264,87.8815862 103.250451,88.3389542 104.154031,88.8311826 L68.4137905,43.6549381 C63.4761684,39.7979873 57.3295888,36.3300782 50.6112992,33.6779016 C52.6429613,35.0514 54.9409565,35.9312756 57.1497093,36.9812698" id="Fill-46" fill="#E1DAD3"></path>
            <path d="M92.6201309,82.6783281 C90.4657603,81.6882938 88.2374858,80.8488562 85.9687732,80.1544377 C83.7990641,79.4934852 81.5763672,78.8883092 79.3383317,78.5104229 C73.29215,77.4827393 67.1776419,77.9666012 61.0826557,77.8926972 C59.5738991,77.8731754 58.0679313,77.8243709 56.5647524,77.7016624 C55.5510129,77.6179975 54.5651618,77.4785561 53.6044101,77.1132194 C51.8850969,76.4550557 50.3958621,75.3311576 49.1269448,74.0036748 C46.3813425,71.1325752 21.7015983,34.7216209 21.7992074,33.7455307 C21.8968164,32.7554963 23.6244961,31.324827 24.4458063,30.8214433 C26.3505766,29.6626847 28.7489698,29.4353952 30.9312286,29.4005348 C32.9921734,29.3698577 35.0182578,29.4507337 37.0471311,29.690573 C26.9947962,27.7202652 16.6022241,27.8889894 7.57478395,31.3694482 C22.7418316,54.6324671 44.6188024,85.1771191 44.6188024,85.1771191 C44.6188024,85.1771191 72.6549025,75.1484892 99.0093386,86.3526106 C97.0055648,84.9261245 94.8484054,83.7060117 92.6201309,82.6783281" id="Fill-48" fill="#F6EEE7"></path>
            <path d="M165.282239,47.1507355 C136.256105,18.6084629 115.692673,0 115.692673,0 C115.692673,0 89.5641318,7.16171342 68.413651,43.6549381 L104.153892,88.8311826 C111.368593,73.980667 130.858326,54.1827684 165.282239,47.1507355" id="Fill-50" fill="#F6EEE7"></path>
            <path d="M157.234376,46.0265585 C154.477618,46.8855179 151.790581,47.9717669 149.090994,48.9938728 C146.4681,49.9908792 143.881461,51.0994388 141.353388,52.3279181 C136.403216,54.7291001 131.658023,57.5444231 127.099681,60.6232906 C123.008469,63.3814427 118.765265,66.9832156 113.495773,66.2985581 C111.015109,65.9750539 108.746396,64.7423913 106.732862,63.3172996 C104.649606,61.8434034 102.650016,60.2133327 100.76895,58.485653 C96.7767414,54.8099761 93.2223785,50.6546206 90.005464,46.2887084 C88.4311699,44.1510708 86.9252022,41.9562622 85.5168434,39.7000994 C84.2102769,37.6042943 82.8130735,35.4861785 82.0907667,33.1017295 C81.3670655,30.6907866 81.4019259,28.1208805 82.192559,25.7308539 C82.518852,24.7436083 82.9385708,23.8023785 83.3987276,22.879276 C78.395568,28.4374126 73.2724887,35.2714386 68.4143482,43.6546592 L104.154589,88.8309037 C111.367896,73.9803881 130.857629,54.1824895 165.281542,47.1504567 C164.475571,46.3570347 163.677965,45.5719793 162.885938,44.7966848 C160.974195,45.0476794 159.086158,45.4506653 157.234376,46.0265585" id="Fill-52" fill="#E1DAD3"></path>
            <path d="M114.587739,73.4457696 C112.86982,74.9363988 111.289948,76.524637 109.955493,78.3652643 C108.884583,79.8447382 107.718852,81.6170392 106.000933,82.3979113 C104.227238,83.203883 102.492586,81.6742102 101.346377,80.4666471 C100.668692,79.7582845 100.07746,78.9802011 99.4402127,78.2355837 C98.4459951,77.072642 97.4657216,75.8999393 96.4770817,74.7272366 C92.6661465,70.1981779 88.6850928,65.8266881 85.033121,61.1609769 C83.2566368,58.8908699 81.5331403,56.5789305 79.8849423,54.2112145 C78.5184159,52.2492731 76.9789822,50.4016738 75.6807822,48.3951111 C74.4606694,46.5070738 73.5236228,44.4363681 73.3186439,42.1704443 C73.1317923,40.1401767 73.463663,38.0387938 73.9293975,36.0629083 C74.0813887,35.4382106 74.2501128,34.8149073 74.43557,34.198576 C72.4039079,37.1101137 70.3889788,40.2517298 68.4144877,43.6541015 L104.154728,88.8303459 C106.79575,83.3893401 111.093336,77.2804097 117.164617,71.3834304 C116.276375,72.0388052 115.416021,72.7234628 114.587739,73.4457696" id="Fill-54" fill="#E1DAD3"></path>
            <path d="M62.0955585,54.7286817 C60.4613045,49.620941 60.1977602,45.7249466 60.0443746,42.7199831 C59.2216699,42.1594285 58.3836268,41.6239732 57.5525557,41.105251 C55.3117314,39.6996811 54.8571522,33.9895533 50.7282906,33.8013073 C51.0002014,34.7076768 51.2888452,38.8713988 51.3948208,40.0873283 C52.05159,47.5014308 57.1091318,65.4266306 64.2415625,69.6503124 L65.0865778,65.0515331 C65.0865778,65.0515331 67.818236,67.5865788 71.8564607,68.2405593 C71.8564607,68.2405593 65.8479282,66.4598918 62.0955585,54.7286817" id="Fill-56" fill="#E1DAD3"></path>
            <path d="M47.6339451,29.2330656 C47.6339451,29.2330656 52.0514506,30.5145326 52.7110087,37.9300295 C53.3663836,45.3427376 58.4239254,63.2721206 65.5591449,67.4916192 L66.316312,62.049219 C66.316312,62.049219 69.1330295,65.4264912 73.1684654,66.0832604 C73.1684654,66.0832604 67.1641161,64.2984097 63.410352,52.5671996 C59.6551935,40.8359895 63.1272858,35.4884095 58.6233266,32.6730864 C54.1151842,29.8563689 47.6339451,29.2330656 47.6339451,29.2330656" id="Fill-58" fill="#005AAA"></path>
            <path d="M54.3882106,30.8847497 C56.2372044,32.0114367 58.1489468,33.3849351 58.6258366,35.6173929 C58.9312134,37.0118075 58.9883844,38.4355048 59.0664716,39.8564133 C59.1543197,41.3163654 59.2881835,42.7707398 59.5377837,44.2167478 C59.794356,45.666939 60.1178602,47.1017916 60.5055075,48.5213057 C60.685387,49.1989912 60.8722385,49.8780711 61.0744286,50.5501789 C61.2682523,51.1916096 61.4997251,51.8190962 61.6112783,52.484232 C61.6321945,52.5902075 61.5053028,52.6459841 61.4425541,52.5553471 C61.0744286,52.0226807 60.74953,51.4523652 60.3284168,50.9629256 C60.9321983,52.6334343 61.6796046,54.2398 62.4521103,55.8364047 C62.269442,55.1531415 62.1523111,54.4573286 62.1146619,53.7587269 C62.1090843,53.6471738 62.269442,53.6402017 62.3001191,53.7350219 C63.1256125,56.0581166 64.5660428,58.1664715 66.1975079,59.9959435 C66.7929229,60.6652625 67.4231983,61.3122709 68.0897285,61.9244189 C66.5000959,59.8941512 64.8003045,56.9128928 63.4114675,52.5678969 C59.6549146,40.8366868 63.1284014,35.4891067 58.6230478,32.6723892 C57.0794308,31.7088487 55.3085242,31.0018805 53.6449876,30.4901304 C53.8945878,30.6072612 54.1455825,30.7369418 54.3882106,30.8847497" id="Fill-60" fill="#005AAA"></path>
            <path d="M65.1812585,66.2722036 C65.1784697,66.347502 62.1986057,63.1138545 61.0551857,61.2955379 C60.1376609,59.8272193 59.3526055,58.2836023 58.691653,56.6856032 C56.3894744,51.9083387 55.2753372,46.5468146 54.4094057,41.3637755 C54.0175752,39.0420752 53.6578162,36.7385022 52.8002512,34.5339327 C52.4112096,33.5438984 51.9398974,32.5622305 51.343088,31.6684107 C50.3656033,30.6686154 49.1859286,29.923998 47.9309554,29.2672288 C47.7371318,29.2435237 47.6339451,29.2337628 47.6339451,29.2337628 C47.6339451,29.2337628 52.0514506,30.5138354 52.7110087,37.9307267 C53.3663836,45.3420404 58.4239254,63.2728178 65.5591449,67.4923164 L66.0820504,63.7427355 C65.9272704,63.1473205 65.2551625,64.820618 65.1812585,66.2722036" id="Fill-62" fill="#005AAA"></path>
        </g>
    </g>
</svg>